<svg enable-background="new 0 0 360 360" viewBox="0 0 360 360" xmlns="http://www.w3.org/2000/svg" xmlns:xlink="http://www.w3.org/1999/xlink">
<defs>
<style>
path {
    stroke-dasharray: 500;
    /* stroke: white !important; */
    /* stroke-width: 3 !important; */
    /* fill: transparent !important; */
    animation: dash 10s linear infinite;
}

@keyframes dash {
    from {
        stroke-dashoffset: 1000;
    }
    to {
        stroke-dashoffset: 0;
    }
}
</style>
</defs>
<linearGradient id="a">
<stop offset="0" stop-color="#fff"/>
<stop offset="1" stop-color="#fcefad"/>
</linearGradient>
<linearGradient id="b" gradientTransform="matrix(.9993 .03838781 -.03838781 .9993 6.9621 130.7182)" gradientUnits="userSpaceOnUse" x1="69.6663" x2="69.5862" xlink:href="#a" y1="-24.4141" y2="125.3808"/>
<linearGradient id="c" gradientUnits="userSpaceOnUse" x1="146.2565" x2="146.2565" xlink:href="#a" y1="185.9" y2="285.1"/>
<linearGradient id="d" gradientTransform="matrix(.9993 -.03786459 .03786459 .9993 -6.9094 155.7418)" gradientUnits="userSpaceOnUse" x1="225.0859" x2="225.0859" xlink:href="#a" y1="-10.1743" y2="119.1583"/>
<linearGradient id="e" gradientTransform="matrix(.9993 -.03786459 .03786459 .9993 -6.9094 155.7418)" gradientUnits="userSpaceOnUse" x1="295.4347" x2="295.4347" xlink:href="#a" y1="-19.7891" y2="95.0324"/>
<path d="m349.3 186.6c-2-5.7-5.5-10.7-10.2-14.6-.8-.8-1.5-1.5-2.4-2.2-4.8-4.7-10.6-8.2-16.9-10.2.5-.5 1-1.1 1.4-1.7 4.2-5.5 5.9-12.5 4.9-19.3-1-6.5-3.1-14.3-12.8-20.5-6.8-4.3-14.8-6.5-22.9-6.4-3.1 0-6.1.3-9.2.8-7 1.1-13.8 3.5-19.9 7.1-8 4.7-15 10.8-20.7 18-10.8-7.6-30.3-13.9-30.3-13.9 3.2-9.4.9-23.8-12.7-31.7.2-4-5.4-21.2-27.2-21.4-1.4 0-2.7.1-4.1.4-4.5-4.8-10.7-7.5-17.2-7.5h-.1c-6.3 0-12.3 2.5-16.7 7-12.5-2.2-24.5 5.9-27.2 18.3-10.8 5.3-16 17.8-12.1 29.2-1.5 1-2.8 1.9-3.9 2.6l-.9.6c-1.9 1.3-6.5 4.9-11.7 9.1-3.2-18.1-8.1-23.6-11.7-27.2-5.6-5.6-15.6-8.6-23.5-8.6h-1c-.6 0-1.1 0-1.7.1-10 .7-18.4 7.7-21 17.3-.9 3.6-1.1 7.4-.7 11.1.8 9.5 1.1 18.3 1.4 26.7 1 29.4 9.8 92.9 12.1 101.4 6.1 22.5 21.3 22.2 27.2 22.2h.8c.5 0 1 0 1.5-.1l.8-.1h.4c9.8-1.4 17.1-7.7 20.6-17.7.6-1.9 1.1-3.8 1.5-5.7 1.6 2.4 3.5 4.7 5.5 6.9.7.8 1.4 1.6 2.1 2.4 6.6 7.9 14.1 12 22.3 12 1.5 0 3-.1 4.4-.4 1 7.4 4.9 15 9.9 21.1 6.4 7.9 14.4 8.8 23 9.1h1.2c11.5 0 25.2-7 26.4-26.5 5.5 3.9 11.8 6.4 18.4 7.4 3.2.5 6.4.8 9.6.8 12.4-.1 24.5-3.1 35.4-9 12-6.7 21.3-14.7 28.4-24.6 5.7 4.2 12.9 6.4 21.2 6.4 2.7 0 5.4-.2 8-.7 3.8-.6 7.5-1.6 11.1-2.9 15-5.6 26.8-14.3 34-25.2 8.3-11.7 10.1-26.6 5.2-39.9z" fill="#2d68b2"/>
<path d="m72.1 209.4c.7 4.7 1.3 23.1 1.2 28 0 8.6-.8 23.8-13.5 25.6l-.7.1-.8.1c-6.4.2-10-4.4-12.2-10.5-2.1-5.9-8.5-57.8-9.5-66.6-2.2-19.3-1.7-36.7-3.5-58.7-.2-2.3-.1-4.7.4-6.9 1.3-5.2 5.8-8.9 11.2-9.2.3 0 .7 0 1-.1 5.4-.1 10.5 1.9 14.4 5.6 4.6 6.4 8.5 33.8 9.6 43.8 1.9-2.9 25.6-21.8 29.8-24.7s16.6-12.7 24-5.7c6.4 6 .7 15.4-3.6 22.9s-27.3 29.9-27.3 29.9l28.4 51.8s11 20.3-2.9 25.2c-10.9 3.9-18.2-6.2-22.3-12.5s-23.7-38.1-23.7-38.1z" fill="#0476cd" stroke="#0476cd" stroke-miterlimit="10" stroke-width="11.33"/>
<path d="m69.7 207.2c.7 4.7 1.3 23.1 1.2 28 0 8.6-.8 23.8-13.5 25.6l-.7.1-.8.1c-6.4.2-10-4.4-12.2-10.5-2.1-5.9-8.5-57.8-9.5-66.6-2.2-19.3-1.7-36.7-3.5-58.7-.2-2.3-.1-4.7.4-6.9 1.3-5.2 5.8-8.9 11.2-9.2.3 0 .7 0 1-.1 5.4-.1 10.5 1.9 14.4 5.6 4.6 6.4 8.3 34 9.4 44 1.9-2.9 25.8-22.1 30-24.9s16.6-12.7 24-5.7c6.4 6 .7 15.3-3.6 22.9s-27.3 29.9-27.3 29.9l28.7 51.5s11 20.3-2.9 25.2c-10.9 3.9-18.2-6.2-22.3-12.5s-24-37.8-24-37.8z" fill="#0196ec" stroke="#0196ec" stroke-miterlimit="10" stroke-width="11.33"/>
<path d="m69.7 207.2c.7 4.7 1.3 23.1 1.2 28 0 8.6-.8 23.8-13.5 25.6l-.7.1-.8.1c-6.4.2-10-4.4-12.2-10.5-2.1-5.9-8.5-57.8-9.5-66.6-2.2-19.3-1.7-36.7-3.5-58.7-.2-2.3-.1-4.7.4-6.9 1.3-5.2 5.8-8.9 11.2-9.2.3 0 .7 0 1-.1 5.4-.1 10.5 1.9 14.4 5.6 4.6 6.4 8.3 34 9.4 44 1.9-2.9 25.8-22.1 30-24.9s16.6-12.7 24-5.7c6.4 6 .7 15.3-3.6 22.9s-27.3 29.9-27.3 29.9l28.7 51.5s11 20.3-2.9 25.2c-10.9 3.9-18.2-6.2-22.3-12.5s-24-37.8-24-37.8z" fill="#224099" stroke="#224099" stroke-miterlimit="10" stroke-width="1.13"/>
<path d="m53 258c-5 0-8.6-3.2-10.9-9.9-2-5.7-8.3-56-9.4-66.4-1.2-10.7-1.6-20.8-2-31.4-.3-8.6-.7-17.4-1.5-27.3-.2-2.2-.1-4.5.4-6.6 1.2-4.9 5.4-8.4 10.4-8.7.3 0 .6-.1 1-.1h.6c4.9.1 9.6 2 13.2 5.3 3.6 5.2 7 26 9 43.8l.3 2.3 1.3-1.9c1.8-2.7 25.5-21.9 29.9-24.9l1-.7c3.3-2.4 10.3-7.3 16.2-7.3 2.1-.1 4.2.7 5.8 2.2 5.7 5.3 1 13.6-3.2 20.9l-.6 1c-4.2 7.4-26.9 29.5-27.1 29.8l-.5.5 29.3 51.8c.1.1 6.1 11.4 3.2 18.8-1 2.5-3.1 4.5-5.7 5.3-1.4.5-3 .8-4.5.8-7.4 0-12.9-6.9-16.8-13-4.1-6.4-24.3-37.4-24.3-37.4l-2.1-3.2.5 3.8c.7 4.6 1.3 23.1 1.2 27.8-.1 9.9-1.4 23.2-12.7 24.8l-.7.1h-.8z" fill="url(#b)"/>
<path d="m41.5 108.4c4.7.1 9.1 1.8 12.6 5 3.5 5.2 6.8 25.7 8.8 43.3l.5 4.6 2.6-3.8c1.6-2.4 25-21.4 29.7-24.7l1-.7c3.3-2.3 10-7.1 15.7-7.1 1.9 0 3.8.7 5.2 2 4.8 4.5 1.5 11.3-3.4 19.8l-.6 1c-4.1 7.3-26.8 29.3-27 29.6l-.9.9.7 1.1 29 51.2c.1.1 5.9 11.1 3.2 18.1-.9 2.3-2.8 4.1-5.2 4.8-1.4.5-2.8.7-4.2.8-3.7 0-8.9-1.4-16.1-12.6-4.1-6.3-24.1-37-24.3-37.3l-4.2-6.4 1.1 7.6c.7 4.6 1.3 22.9 1.2 27.7-.1 10.4-1.5 22.4-12 23.9l-.7.1h-.7-.5c-1.7 0-6.8 0-10.1-9.3-2-5.5-8.3-56.2-9.4-66.2-1.2-10.7-1.6-20.7-2-31.4-.3-8.6-.7-17.5-1.5-27.3-.2-2.1-.1-4.2.3-6.3 1.2-4.5 5.1-7.7 9.7-8l.9-.1zm0-1.6h-.6c-.3 0-.7 0-1 .1-5.3.3-9.9 4.1-11.2 9.2-.5 2.3-.6 4.6-.4 6.9 1.8 22 1.3 39.4 3.5 58.7 1 8.8 7.4 60.7 9.5 66.6s5.6 10.4 11.7 10.4h.4l.8-.1.7-.1c12.6-1.8 13.4-17 13.5-25.6.1-4.9-.5-23.3-1.2-28 0 0 20.2 31 24.3 37.3 3.5 5.4 9.2 13.4 17.6 13.4 1.6 0 3.3-.3 4.8-.9 13.9-4.9 2.9-25.2 2.9-25.2l-29-51.2s23-22.4 27.3-29.9 10.1-16.9 3.6-22.9c-1.7-1.6-4-2.5-6.4-2.4-6.8 0-14.6 6.1-17.7 8.2-4.2 2.9-28.2 22.3-30.2 25.2-1.1-10-4.7-37.9-9.2-44.2-3.6-3.5-8.6-5.5-13.7-5.5z" fill="#2376b8"/>
<path d="m152.4 189.6c4.1.2 8.7 1.3 11.2 4.7 7 9.4 4.1 66.3 3.5 79.8-.7 15.2-11.4 16.6-15.9 16.4-9.7-.4-17.8-6.6-17.9-19.1 0-12 1.6-68.5 3.6-73.5 2.4-5.9 9.5-8.5 15.5-8.3z" fill="#be1e2d" stroke="#be1e2d" stroke-miterlimit="10" stroke-width="11.33"/>
<path d="m150.2 187.4c4.1.2 8.7 1.3 11.2 4.7 7 9.4 4.1 66.3 3.5 79.8-.7 15.2-11.4 16.6-15.9 16.4-9.7-.4-17.8-6.6-17.9-19.1 0-12 1.6-68.5 3.6-73.5 2.3-6 9.4-8.6 15.5-8.3z" fill="#ea2d2d" stroke="#ea2d2d" stroke-miterlimit="10" stroke-width="11.33"/>
<path d="m150.2 187.4c4.1.2 8.7 1.3 11.2 4.7 7 9.4 4.1 66.3 3.5 79.8-.7 15.2-11.4 16.6-15.9 16.4-9.7-.4-17.8-6.6-17.9-19.1 0-12 1.6-68.5 3.6-73.5 2.3-6 9.4-8.6 15.5-8.3z" fill="#960c23" stroke="#960c23" stroke-miterlimit="10" stroke-width="1.13"/>
<path d="m147.4 285.1h-.7c-8.2-.3-17-5.3-17-18.2 0-11.8 1.6-68.4 3.5-73.2 2.1-5.4 8.5-7.8 13.9-7.8h.8c3.4.1 8 1 10.5 4.4 3.1 4.1 6.1 21.2 3.3 78.9v.3c-.2 4.7-2.1 15.6-14.3 15.6z" fill="url(#c)"/>
<path d="m147.1 185.1v1.7h.7c3.2.1 7.6.9 9.9 4 2.4 3.3 6.1 17.8 3.2 78.3v.3c-.6 12.9-8.7 14.8-13.5 14.8h-.6c-4.2 0-8.3-1.7-11.4-4.5-3.1-3-4.8-7.5-4.8-12.8 0-13.5 1.7-68.5 3.4-72.9 2-5 8-7.2 13.1-7.2zm0-.1c-5.9 0-12.5 2.6-14.7 8.3-2 5-3.6 61.5-3.6 73.5 0 12.5 8.2 18.7 17.9 19.1h.7c4.9 0 14.5-2 15.2-16.4.7-13.5 3.5-70.4-3.5-79.8-2.5-3.4-7-4.5-11.2-4.7z" fill="#c41623"/>
<path d="m215.9 142c40.7 13.4 63 40.5 57 73.9-1 5.4-2.6 10.6-5 15.6-7.1 15.1-17.2 25-31.7 33.1-9.6 5.4-24.8 9-37.6 6.9-5.6-.7-10.9-3.1-15.2-6.7-8.5-7.5-5.6-18.6-3.8-28.4l5.1-28.7c3.6-19.8 5.5-35.7 9.8-55.4 1.8-8.2 10.2-12.4 18.4-11 1 .2 2 .4 3 .7zm-2.5 105.6.1.1c5.2 2.3 15.5-10.2 18.1-13.7 4.5-6 7.5-12.9 8.8-20.2 1.9-11.2.6-23.8-6.9-32.9-1.5-1.9-3.3-3.6-5.4-5-3.2-2-3.5-.4-4.5 2.9-1.9 6.2-1.9 12.8-2.9 19.2-1.3 8.3-2.7 16.6-4.2 24.9l-.6 3.4c-.5 3.2-4.8 19.8-2.5 21.3z" fill="#6e9622" stroke="#6e9622" stroke-miterlimit="10" stroke-width="11.33"/>
<path d="m213.5 139.8c40.7 13.4 63 40.5 57 73.9-1 5.4-2.6 10.6-5 15.6-7.1 15.1-17.2 25-31.7 33.1-9.6 5.4-24.8 9-37.6 6.9-5.6-.7-10.9-3.1-15.2-6.7-8.5-7.5-5.6-18.6-3.8-28.4l5.1-28.7c3.6-19.8 5.5-35.7 9.8-55.4 1.8-8.2 10.2-12.4 18.4-11 1.1.2 2 .4 3 .7zm-2.5 105.7.1.1c5.2 2.3 15.5-10.2 18.1-13.7 4.5-6 7.5-12.9 8.8-20.2 1.9-11.2.6-23.8-6.9-32.9-1.5-1.9-3.3-3.6-5.4-5-3.2-2-3.5-.4-4.5 2.9-1.9 6.2-1.9 12.8-2.9 19.2-1.3 8.3-2.7 16.6-4.2 24.9l-.6 3.4c-.4 3.1-4.8 19.8-2.5 21.3z" fill="#7ca827" stroke="#7ca827" stroke-miterlimit="10" stroke-width="11.33"/>
<path d="m213.5 139.8c40.7 13.4 63 40.5 57 73.9-1 5.4-2.6 10.6-5 15.6-7.1 15.1-17.2 25-31.7 33.1-9.6 5.4-24.8 9-37.6 6.9-5.6-.7-10.9-3.1-15.2-6.7-8.5-7.5-5.6-18.6-3.8-28.4l5.1-28.7c3.6-19.8 5.5-35.7 9.8-55.4 1.8-8.2 10.2-12.4 18.4-11 1.1.2 2 .4 3 .7zm-2.5 105.7.1.1c5.2 2.3 15.5-10.2 18.1-13.7 4.5-6 7.5-12.9 8.8-20.2 1.9-11.2.6-23.8-6.9-32.9-1.5-1.9-3.3-3.6-5.4-5-3.2-2-3.5-.4-4.5 2.9-1.9 6.2-1.9 12.8-2.9 19.2-1.3 8.3-2.7 16.6-4.2 24.9l-.6 3.4c-.4 3.1-4.8 19.8-2.5 21.3z" fill="#436306" stroke="#436306" stroke-miterlimit="10" stroke-width="1.13"/>
<path d="m201.7 266.9c-2.6 0-5.1-.2-7.7-.6-6.1-1-11-3.2-14.8-6.5-7.5-6.6-5.7-16.1-4-25.3.1-.8.3-1.6.4-2.4l5.1-28.7c1.3-7 2.3-13.5 3.3-19.9 1.9-11.7 3.7-22.8 6.5-35.5 1.4-6.3 7.2-10.6 14.5-10.6 1 0 2 .1 2.9.2.9.2 1.9.4 2.8.7 41.1 13.5 62.2 40.8 56.5 72.9-.9 5.3-2.6 10.5-4.9 15.4-6.7 14.2-16.4 24.3-31.4 32.8-7.9 4.7-19.2 7.5-29.2 7.5zm8.8-45.1c-.1.6-.4 1.7-.7 3.1-2.6 11.4-3.6 17.8-1.6 19.1l.2.1c.5.2 1.1.3 1.7.3 6.7 0 17-13.8 17.4-14.4 4.6-6.1 7.7-13.1 9-20.6 1.3-7.8 2.1-22.5-7-33.6-1.6-2-3.4-3.7-5.6-5.1-.8-.6-1.7-.9-2.7-1-1.8 0-2.3 1.7-2.9 3.9l-.2.5c-1.1 4.1-1.8 8.3-2.1 12.6-.2 2.2-.5 4.5-.8 6.7-1.3 8.1-2.7 16.6-4.2 24.9v.1z" fill="url(#d)"/>
<path d="m205.2 136.7v1.7c.9 0 1.9.1 2.8.2s1.8.4 2.6.6c19.9 6.6 35.5 16.5 45.2 28.9 9.7 12.1 13.6 27.9 10.7 43.1-.9 5.2-2.5 10.3-4.8 15.1-6.6 14.1-16.2 24.1-31 32.4-8.9 4.7-18.9 7.2-29 7.3-2.5 0-5.1-.2-7.6-.6-5.9-1-10.7-3.1-14.4-6.3-7.1-6.3-5.4-15.5-3.7-24.5.1-.8.3-1.6.4-2.4l2.1-12 3-16.7c1.3-7 2.3-13.6 3.3-19.9 1.9-11.7 3.7-22.7 6.5-35.4 1.3-5.9 6.8-9.9 13.7-9.9v-1.6m5.2 108.6c2.8 0 6.3-2 10.7-6.2 2.7-2.6 5.2-5.4 7.4-8.4 4.7-6.2 7.8-13.4 9.1-21 3.1-18.5-3.2-29.4-7.2-34.2-1.6-2.1-3.6-3.9-5.8-5.3-.9-.7-2-1.1-3.1-1.2-2.4 0-3.1 2.3-3.8 4.5l-.2.5c-1.1 4.2-1.9 8.4-2.2 12.8-.2 2.2-.5 4.5-.8 6.6-1.3 8.1-2.6 16.5-4.1 24.9l-.6 3.4c-.1.6-.4 1.7-.7 3.1-3.2 14.1-3.4 18.6-1.2 20 .1.1.2.1.3.2.8.1 1.5.2 2.2.3m-5-108.7c-7.2 0-13.8 4.1-15.4 11.3-4.3 19.7-6.3 35.5-9.8 55.4l-5.2 28.7c-1.8 9.9-4.7 20.9 3.8 28.4 4.3 3.6 9.6 5.9 15.2 6.7 2.6.4 5.2.6 7.8.6 10.4-.1 20.6-2.6 29.8-7.5 14.5-8.1 24.6-18.1 31.7-33.1 2.3-5 4-10.2 5-15.6 6-33.4-16.3-60.5-57-73.9-.9-.3-1.9-.5-2.9-.7-.9-.2-2-.3-3-.3zm5 106.9c-.5 0-1-.1-1.4-.3l-.1-.1c-2.3-1.5 2.1-18.1 2.6-21.4l.6-3.4c1.5-8.3 2.8-16.6 4.2-24.9 1-6.4 1-13 2.9-19.2.7-2.3 1.1-3.8 2.3-3.8.8.1 1.6.4 2.2.9 2 1.4 3.8 3.1 5.4 5 7.5 9 8.7 21.7 6.9 32.9-1.3 7.3-4.3 14.3-8.8 20.2-2.5 3.5-11.3 14.2-16.8 14.1z" fill="#648417"/>
<path d="m287.9 128.9c7.1-1.2 14.2-.7 19.5 1.6 7.7 3.3 10.2 14.6 5 21.3-2.9 3.6-6.8 5.1-11 5.7-2 .3-4.1.5-6.2.6s-4.2.3-6.2.6c-.7.1-1.5.3-2.2.4-4.4 1.1-6.1 5.7-2.7 9.1 1.9 1.6 4.3 2.6 6.8 2.9 10.2 1.6 19.6.7 29.7 4.1 8 2.7 15.2 7.5 18.2 15.8 7.6 21.6-6.7 41.4-32.1 50.8-2.9 1.1-5.9 1.9-9 2.4-13.4 2.2-26.5-2.2-29-18.8-1.4-9.1 5.9-11.5 14-12.8 1.3-.2 2.7-.4 4-.6s2.7-.4 4-.6c4.1-.7 8.8-1.6 10.5-6 2.1-5.4-2-10.6-6.9-12.4-4.6-1.6-9.7-1.4-14.5-1.8-5.5-.4-11-1.2-16-3.6-6.3-3.1-10.8-8.6-13.8-14.9-6.2-12.8 5.6-28.5 22.2-38.4 4.7-2.6 10.1-4.5 15.7-5.4z" fill="#f16522" stroke="#f16522" stroke-miterlimit="10" stroke-width="11.33"/>
<path d="m285.5 126.7c7.1-1.2 14.2-.7 19.5 1.6 7.7 3.3 10.2 14.6 5 21.3-2.9 3.6-6.8 5.1-11 5.7-2 .3-4.1.5-6.2.6s-4.2.3-6.2.6c-.7.1-1.5.3-2.2.4-4.4 1.1-6.1 5.7-2.7 9.1 1.9 1.6 4.3 2.6 6.8 2.9 10.2 1.6 19.6.7 29.7 4.1 8 2.7 15.2 7.5 18.2 15.8 7.6 21.6-6.7 41.4-32.1 50.8-2.9 1.1-5.9 1.9-9 2.4-13.4 2.2-26.5-2.2-29-18.8-1.4-9.1 5.9-11.5 14-12.8 1.3-.2 2.7-.4 4-.6s2.7-.4 4-.6c4.1-.7 8.8-1.6 10.5-6 2.1-5.4-2-10.6-6.9-12.4-4.6-1.6-9.7-1.4-14.5-1.8-5.5-.4-11-1.2-16-3.6-6.3-3.1-10.8-8.6-13.8-14.9-6.2-12.8 5.6-28.5 22.2-38.4 4.8-2.6 10.1-4.5 15.7-5.4z" fill="#f6921e" stroke="#f6921e" stroke-miterlimit="10" stroke-width="11.33"/>
<path d="m285.5 126.7c7.1-1.2 14.2-.7 19.5 1.6 7.7 3.3 10.2 14.6 5 21.3-2.9 3.6-6.8 5.1-11 5.7-2 .3-4.1.5-6.2.6s-4.2.3-6.2.6c-.7.1-1.5.3-2.2.4-4.4 1.1-6.1 5.7-2.7 9.1 1.9 1.6 4.3 2.6 6.8 2.9 10.2 1.6 19.6.7 29.7 4.1 8 2.7 15.2 7.5 18.2 15.8 7.6 21.6-6.7 41.4-32.1 50.8-2.9 1.1-5.9 1.9-9 2.4-13.4 2.2-26.5-2.2-29-18.8-1.4-9.1 5.9-11.5 14-12.8 1.3-.2 2.7-.4 4-.6s2.7-.4 4-.6c4.1-.7 8.8-1.6 10.5-6 2.1-5.4-2-10.6-6.9-12.4-4.6-1.6-9.7-1.4-14.5-1.8-5.5-.4-11-1.2-16-3.6-6.3-3.1-10.8-8.6-13.8-14.9-6.2-12.8 5.6-28.5 22.2-38.4 4.8-2.6 10.1-4.5 15.7-5.4z" fill="#bf3a16" stroke="#bf3a16" stroke-miterlimit="10" stroke-width="1.13"/>
<path d="m286.6 239.7c-7.1 0-19.5-2.4-22-18.6-1.2-7.8 4.2-10.3 13.3-11.8 1.3-.2 2.6-.4 4-.6s2.7-.4 4-.6c3.7-.6 9.2-1.5 11.2-6.6.9-2.3.8-4.9-.3-7.2-1.4-3-4-5.2-7.1-6.3-3.7-1.3-7.6-1.5-11.5-1.6-1.1-.1-2.2-.1-3.3-.2-4.9-.4-10.6-1-15.7-3.6-5.5-2.8-10.2-7.8-13.4-14.5-6.2-12.9 7-28.4 21.9-37.3 4.8-2.8 10.1-4.7 15.6-5.5 2.4-.4 4.8-.6 7.2-.6 4-.1 8.1.6 11.8 2.1 3.4 1.6 5.9 4.7 6.8 8.4 1.1 4 .3 8.2-2.1 11.6-2.3 3-5.5 4.6-10.4 5.4-2 .3-4.1.5-6.1.6s-4.3.3-6.4.7c-.8.1-1.5.3-2.2.4-2.4.5-4.3 2.2-5 4.5-.5 2.2.2 4.5 1.9 6 1.6 1.6 3.9 2.6 7.2 3.1 3.7.6 7.3.8 10.8 1.1 6.4.4 12.4.9 18.7 3 9.2 3.2 15.2 8.3 17.6 15.3 7.1 20.1-5.6 40.1-31.6 49.7-2.9 1.1-5.8 1.9-8.8 2.4-2 .5-4 .7-6.1.7z" fill="url(#e)"/>
<path d="m290.5 123.9v1.7c3.9-.1 7.8.6 11.5 2.1 3.2 1.5 5.5 4.4 6.3 7.9 1 3.7.3 7.7-2 10.8-2.2 2.8-5.2 4.4-9.9 5.1-2 .3-4 .5-6.1.6l.1 1.7-.2-1.7c-2.1.2-4.3.3-6.4.7-.8.1-1.6.3-2.3.5-2.6.5-4.8 2.5-5.6 5.1-.6 2.5.2 5.1 2.1 6.9 2.3 2.3 5.5 3 7.7 3.4 3.7.6 7.4.8 10.9 1.1 6.3.4 12.3.9 18.5 3 9 3.1 14.7 8.1 17.1 14.8 3.5 9.5 2.2 20.1-3.5 28.5-5.7 8.6-15.2 15.6-27.6 20.2-2.8 1-5.7 1.8-8.7 2.3-2 .3-3.9.5-5.9.5-6.9 0-18.8-2.3-21.1-17.9-1.1-7.2 3.8-9.4 12.6-10.8 1.3-.2 2.6-.4 4-.6s2.7-.4 4-.6c3.9-.6 9.7-1.6 11.8-7.1 1-2.5.9-5.4-.3-7.8-1.5-3.2-4.3-5.6-7.6-6.8-3.8-1.3-7.8-1.5-11.7-1.7-1.1-.1-2.2-.1-3.3-.2-4.8-.3-10.4-1-15.4-3.5-5.4-2.7-9.9-7.6-13.1-14.1-6-12.4 7-27.5 21.6-36.2 4.7-2.8 9.9-4.6 15.3-5.4 2.3-.4 4.7-.6 7.1-.6zm0 .1c-2.5 0-4.9.2-7.4.6-5.6.9-11 2.8-15.9 5.6-16.6 10-28.4 25.7-22.2 38.4 3 6.2 7.5 11.8 13.8 14.9 5 2.5 10.5 3.3 16 3.6 4.8.3 9.9.2 14.5 1.8 4.9 1.7 8.9 7 6.9 12.4-1.7 4.4-6.4 5.4-10.5 6-1.3.2-2.6.4-4 .6s-2.7.4-4 .6c-8.1 1.3-15.4 3.6-14 12.8 2.2 14 11.8 19.3 22.8 19.3 2.1 0 4.2-.2 6.2-.5 3.1-.5 6.1-1.3 9-2.4 25.4-9.4 39.7-29.2 32.1-50.8-2.9-8.3-10.2-13.1-18.2-15.8-10-3.4-19.4-2.6-29.7-4.1-2.5-.2-4.9-1.2-6.8-2.9-3.4-3.4-1.7-8 2.7-9.1.7-.2 1.4-.3 2.2-.4 2-.3 4.1-.5 6.2-.6s4.2-.3 6.2-.6c4.2-.7 8.1-2.1 11-5.7 5.2-6.7 2.7-18-5-21.3-3.6-1.8-7.7-2.6-11.9-2.4z" fill="#f16522"/>
<path d="m142.6 87.3-1.2 2.6c-1.3-.8-2.6-1.5-3.9-2.1-6.3-2.5-13.5.5-16.1 6.9-.4.9-.6 1.9-.8 2.8-.2 1.8-.1 3.7.2 5.5-1.5.1-2.9.4-4.3.7-6.5 2-10.3 8.8-8.3 15.4.3 1 .8 2 1.3 3 1.1 1.6 2.4 3 3.9 4.3-1.1 1-2.1 2-3 3.1-4.2 5.4-3.3 13.1 2.1 17.3.7.6 1.5 1.1 2.4 1.5 1.7.7 3.5 1.2 5.4 1.4-.2 1.6-.2 3.1-.1 4.7.9 6.8 7.1 11.6 13.8 10.7.5-.1 1.1-.2 1.6-.3 1.7-.6 3.3-1.3 4.9-2.2.5 1.4 1.2 2.9 1.9 4.2 3.4 5.9 11 7.9 16.9 4.4 1.2-.7 2.3-1.6 3.2-2.7 1.2-1.6 2.2-3.3 2.9-5.1 1.3.8 2.7 1.4 4.1 2 6.4 2.3 13.5-1.1 15.8-7.5.2-.7.4-1.4.5-2.1.2-1.7.2-3.3.1-5 1.6-.1 3.1-.3 4.7-.7 2.3-.7 4.4-2 5.9-3.9 3.4-4.1 3.8-9.9 1-14.5-1.1-1.5-2.3-2.9-3.7-4.2 1.2-.9 2.3-2 3.4-3.1 4.5-5.1 4.1-12.9-1-17.4-1-.9-2.2-1.6-3.4-2.2-1.8-.6-3.7-1.1-5.6-1.2.2-1.6.3-3.2.3-4.8-.5-6.8-6.4-11.9-13.2-11.4-.9.1-1.9.2-2.8.5-1.8.7-6.5-.7-7.4-2.2-3.8-5.7-11.5-7.2-17.1-3.4-2 1.3-3.4 3-4.4 5" fill="#be1e2d" stroke="#be1e2d" stroke-miterlimit="10" stroke-width="11.33"/>
<path d="m140.3 85-1.2 2.6c-1.3-.8-2.6-1.5-3.9-2.1-6.3-2.5-13.5.5-16.1 6.9-.4.9-.6 1.9-.8 2.8-.2 1.8-.1 3.7.2 5.5-1.5.1-2.9.4-4.3.7-6.5 2-10.3 8.8-8.3 15.4.3 1 .8 2 1.3 3 1.1 1.6 2.4 3 3.9 4.3-1.1 1-2.1 2-3 3.1-4.2 5.4-3.3 13.1 2.1 17.3.7.6 1.5 1.1 2.4 1.5 1.7.7 3.5 1.2 5.4 1.4-.2 1.6-.2 3.1-.1 4.7.9 6.8 7.1 11.6 13.8 10.7.5-.1 1.1-.2 1.6-.3 1.7-.6 3.3-1.3 4.9-2.2.5 1.4 1.2 2.9 1.9 4.2 3.4 5.9 11 7.9 16.9 4.4 1.2-.7 2.3-1.6 3.2-2.7 1.2-1.6 2.2-3.3 2.9-5.1 1.3.8 2.7 1.4 4.1 2 6.4 2.3 13.5-1.1 15.8-7.5.2-.7.4-1.4.5-2.1.2-1.7.2-3.3.1-5 1.6-.1 3.1-.3 4.7-.7 2.3-.7 4.4-2 5.9-3.9 3.4-4.1 3.8-9.9 1-14.5-1.1-1.5-2.3-2.9-3.7-4.2 1.2-.9 2.3-2 3.4-3.1 4.5-5.1 4.1-12.9-1-17.4-1-.9-2.2-1.6-3.4-2.2-1.8-.6-3.7-1.1-5.6-1.2.2-1.6.3-3.2.3-4.8-.5-6.8-6.4-11.9-13.2-11.4-.9.1-1.9.2-2.8.5-1.8.7-6.5-.7-7.4-2.2-3.8-5.7-11.5-7.2-17.1-3.4-1.9 1.3-3.4 3-4.4 5" fill="#ea2d2d" stroke="#ea2d2d" stroke-miterlimit="10" stroke-width="11.33"/>
<path d="m140.3 85-1.2 2.6c-1.3-.8-2.6-1.5-3.9-2.1-6.3-2.5-13.5.5-16.1 6.9-.4.9-.6 1.9-.8 2.8-.2 1.8-.1 3.7.2 5.5-1.5.1-2.9.4-4.3.7-6.5 2-10.3 8.8-8.3 15.4.3 1 .8 2 1.3 3 1.1 1.6 2.4 3 3.9 4.3-1.1 1-2.1 2-3 3.1-4.2 5.4-3.3 13.1 2.1 17.3.7.6 1.5 1.1 2.4 1.5 1.7.7 3.5 1.2 5.4 1.4-.2 1.6-.2 3.1-.1 4.7.9 6.8 7.1 11.6 13.8 10.7.5-.1 1.1-.2 1.6-.3 1.7-.6 3.3-1.3 4.9-2.2.5 1.4 1.2 2.9 1.9 4.2 3.4 5.9 11 7.9 16.9 4.4 1.2-.7 2.3-1.6 3.2-2.7 1.2-1.6 2.2-3.3 2.9-5.1 1.3.8 2.7 1.4 4.1 2 6.4 2.3 13.5-1.1 15.8-7.5.2-.7.4-1.4.5-2.1.2-1.7.2-3.3.1-5 1.6-.1 3.1-.3 4.7-.7 2.3-.7 4.4-2 5.9-3.9 3.4-4.1 3.8-9.9 1-14.5-1.1-1.5-2.3-2.9-3.7-4.2 1.2-.9 2.3-2 3.4-3.1 4.5-5.1 4.1-12.9-1-17.4-1-.9-2.2-1.6-3.4-2.2-1.8-.6-3.7-1.1-5.6-1.2.2-1.6.3-3.2.3-4.8-.5-6.8-6.4-11.9-13.2-11.4-.9.1-1.9.2-2.8.5-1.8.7-6.5-.7-7.4-2.2-3.8-5.7-11.5-7.2-17.1-3.4-1.9 1.3-3.4 3-4.4 5" fill="#960c23" stroke="#960c23" stroke-miterlimit="10" stroke-width="1.13"/>
<path d="m138.1 82.8-1.2 2.6c-1.3-.8-2.6-1.5-3.9-2.1-6.3-2.5-13.5.6-16 6.9-.4.9-.6 1.9-.8 2.9-.2 1.8-.1 3.7.2 5.5-1.5.1-2.9.4-4.3.7-6.5 2-10.3 8.8-8.3 15.4.3 1 .8 2 1.3 3 1.1 1.6 2.4 3 3.9 4.3-1.1 1-2.1 2-3 3.1-4.2 5.4-3.3 13.1 2.1 17.3.7.6 1.5 1.1 2.4 1.5 1.7.7 3.5 1.2 5.4 1.4-.2 1.6-.2 3.1-.1 4.7.9 6.8 7.1 11.5 13.9 10.6.5-.1 1-.2 1.5-.3 1.7-.6 3.3-1.3 4.9-2.2.5 1.4 1.2 2.9 1.9 4.2 3.4 5.9 11 7.9 16.9 4.4 1.2-.7 2.3-1.6 3.2-2.7 1.2-1.6 2.2-3.3 2.9-5.1 1.3.8 2.7 1.4 4.1 2 6.4 2.3 13.5-1.1 15.8-7.5.2-.7.4-1.4.5-2.1.2-1.7.2-3.3.1-5 1.6-.1 3.1-.3 4.7-.7 2.3-.7 4.4-2 5.9-3.9 3.4-4.1 3.8-9.9 1-14.5-1.1-1.5-2.3-2.9-3.7-4.2 1.2-.9 2.3-2 3.4-3.1 4.5-5.1 4.1-12.9-1-17.4-1-.9-2.2-1.6-3.4-2.2-1.8-.6-3.7-1.1-5.6-1.2.2-1.6.3-3.2.3-4.8-.5-6.8-6.4-11.9-13.2-11.4-.9.1-1.9.2-2.8.5-1.8.7-3.5 1.5-5.1 2.5-.6-1.7-1.4-3.3-2.3-4.8-3.8-5.7-11.5-7.2-17.1-3.4-2.1 1.4-3.6 3.1-4.5 5.1" fill="#fff" stroke="#c41623" stroke-miterlimit="10" stroke-width="1.7"/>
<path d="m185.4 150h-.7v-.2h1.6v.2h-.7v2h-.3z" fill="#960c23"/><path d="m188.5 151c0-.3 0-.7 0-1-.2.6-.4 1.3-.7 1.9h-.2c-.2-.6-.5-1.3-.6-1.9 0 .6-.1 1.3-.1 1.9h-.3l.1-2.2h.4c.2.6.5 1.2.6 1.8.2-.6.4-1.2.6-1.8h.4l.1 2.2h-.3z" fill="#960c23"/>
<path d="m152.3 110.4c-.1.3-.4.4-.8.4.3.1.6 0 1 0-.1.3-.1.4 0 .6.1.1.3-.1.4-.1s.1 0 .3-.1c.3-.1.4-.4.7-.6 0-.3.3-.3.4-.4 0 0 .1-.1.1-.3 0-.3.1-.6.3-.7 0-.1 0-.1 0-.3.3-.1.6.3.7 0-.3-.1-.6-.1-.8-.1s-.4 0-.6.1c0 .1 0 .1-.1.3 0 .1-.1.1-.1.3-.3.3-.6.6-.8.7" fill="#d3b4af"/>
<path d="m147 152.7c-.1-.1 0-.3 0-.4s.1-.3 0-.4.1 0 .1-.3h-.1c0-.1 0-.3.1-.3.3 0 0 .3.3.3 0-.1.1-.3.1-.4.1-.3.1-.7.1-1 .1-.3 0-.7.3-1 0 0 0-.1.1-.3v-.1-.1.3c0 .3-.1.6-.1.9v.1c.1.1 0 .1-.1.1-.1.3-.1.4 0 .7 0 0 .1.1 0 .1 0 0 0 .1-.1.1s0-.1 0-.1 0-.1 0-.3c-.1.1 0 .4-.1.7s-.1.6-.3.7c-.2.3-.2.6-.3.7z" fill="#9e3625"/>
<path d="m148.7 152.4c.1.1.3.1 0 .3-.3.3-.6.6-.8.9-.1.1-.1.4-.4.3.1-.4.4-.6.7-.9.2-.1.3-.4.5-.6z" fill="#9e3625"/>
<path d="m143.6 120c0-.7.1-1.5.1-2.2.2.8.2 1.5-.1 2.2z" fill="#9e3625"/>
<path d="m135.9 132.3c0-.1 0-.4-.1-.6 0-.3.1-.4.1-.7h-.1c0-.4-.3-.3-.6-.3-.6 0-1 0-1.5 0-.7 0-1.4 0-2.1 0-.1 0-.1-.1-.3 0-.6.1-1 0-1.5 0-.1 0-.3 0-.4-.1l-.1.1s0 .1-.1.1c0 0 0-.1.1-.1-.4 0-.7.1-1.1 0 0 0-.1 0-.1-.1-.3.1-.6.1-.8 0s0 0-.1-.1c-.1 0-.3-.1-.4 0h-.1c0-.3-.1-.1-.3 0-.1 0-.3.1-.4 0s-.3 0-.4.1c-.1.3-.6.1-.7.1h-.1s0 0-.1 0c0 .3-.3.3-.4.3-.3 0-.4-.1-.7-.1-.1 0-.1-.1-.1-.1-.1 0-.3 0-.3 0-.1 0-.1 0-.3 0-.1.1-.3 0-.4.1-.7.1-1.3.1-2 .1-.3 0-.4 0-.7 0-.4-.1-1-.1-1.4-.1s-.7 0-1.1 0-.8 0-1.3.1c0 0-.1 0-.1.1v.9c0 .4.3.7.6.7h.4 2 .7c.3.1.6.3.8.4v-.1c.1 0 .3-.1.3-.1 0-.1-.1 0-.1-.3.4.1.8 0 1.3 0 .3 0 .7.3 1 0h.1c.6.1 1 .1 1.5 0 .6 0 1.3-.1 1.8-.1h1.3c.4 0 .8-.1 1.3 0 .4.1.8 0 1.1 0h2.5 1.4c.3 0 .7-.1 1 0s.6.1 1 .1c0-.1 0-.1 0-.3z" fill="#6793b1"/>
<path d="m155 98.3c-2-2.1-7.2-1.9-9.4-.4.3-.1.6-.1.8-.1 0 .4-.3.6-1 .4-.6.3-2.1 1.5-2.8 1.2-.6-.7.6-1.6.6-2.9-.8 0-1.7 3.7-.8 3.7 1.8 0 4.5-2.9 7-2.9-.1 0 1.1-.3 1.1-.4 1.3 0 4.4 1.3 4.5 1.4z" fill="#d3b4af"/>
<path d="m143.3 96.3c.3-.1.4-.3.3-.6 0 .3-.1.6-.3.6-.1.1 0 .1 0 0z" fill="#d3b4af"/>
<path d="m148.2 155.2c-.3-.1-.3-.6-.6-.7.1-.1.3 0 .3 0 .1.3.4.4.6.7 0 .1.3 0 .1.1-.1.2-.1-.1-.4-.1z" fill="#9e3625"/>
<path d="m142.6 103.6c-.3.1-.1.4-.1.6 0 0-.1.1-.1 0-.1-.3-.6-.4-.7-.7 0-.1 0-.7.1-.7h.1c.4.2.7.5.7.8z" fill="#e07127"/>
<path d="m152.9 110.1c.3-.3.6-.4.8-.7 0-.1.1-.1.1-.3-.1 0-.1.1-.3.1.1-.1-.1-.1-.1-.3-.1 0-.1.1-.1.1s0 0-.1 0c0 .1 0 .1-.1 0v.1c-.4.3-.8.4-1.3.6-.1 0-.3.1-.6.1-.1.1-.4.1-.6.1-.3 0-.4.1-.7.1-.1 0-.3 0-.4 0-.1 0-.1 0-.3 0-.1-.1-.4 0-.7 0-.1 0-.1 0-.1-.1 0 0 0-.1-.1-.1-.3 0-.4-.3-.7-.4-.1 0-.3-.1-.3-.3-.3 0-.6-.1-.8-.3-.1 0-.1 0-.1.1-.1 0-.3-.1-.3-.3-.1-.1-.4-.3-.6-.1 0 .1.1.1.1.3-.3 0-.4-.1-.6-.1-.1-.1-.3-.1-.4-.1-.3 0-.3.3-.1.4 0 .3.3.4.6.4.1 0 .3 0 .4.3s.3.4.6.6c.1 0 .1.1.3.1.3-.3.4 0 .7.1 0-.1 0-.1 0-.1.1.1.4.1.6.3.7.3 1.3.7 2.1.7.4 0 .7 0 1-.1.4 0 .8-.1 1.3-.3.3 0 .6-.1.8-.3z" fill="#e07127"/>
<path d="m164.5 95.4c-.3 0-.3-.3-.4-.4 0 0 0 0-.1 0-.4.1-1.3.1-1.7.1-.3-.1-.6-.1-1-.1-.3-.1-.6-.1-.8-.1s-.1-.1-.1 0c-.3 0-.4 0-.7-.1h-.1-.1c0-.1-.1 0-.1 0-.1 0-.1 0-.3 0-.4-.1-.8-.4-1.4-.4-1.5-.4-2.5-1.3-4.2-1.3-2.7-.7-5.5 1.5-7.9 2.1s.1 0 .1.1c.3.3 1.7.1 2-.1.4 0 1 0 1.3-.1h.4c.8-.1 5.1.7 5.1 1.9 0 .3.3.3.4.6.1.1.3.3.4.4.1.3.4.6.7.7.4.4.7.9 1 1.3.1.1.1.3.3.4 0 .1 0 .3.1.3v-.1.1c0 .1 0 .3.1.6 0 .3-.1.4 0 .6v1c-.1 0-.1.1-.3.1 0 .1.1.1.3.1 0-.1 0-.1 0-.3l.1-.1-.1.1v.3s.1 0 .1.1h.3c.8-.1 1.5-.6 2.1-1.3 1-.4 2-2.2 2.7-2.9.4-.6 1-1.3 1.5-1.9.3-.1.3-.6.6-.7-.3-.8-.3-.8-.3-1z" fill="#e12327"/>
<path d="m167.6 93.2s0-.1-.1-.3c-.1 0-.3 0-.3.1-.1.1-.1.3-.1.4.1.3-.1.7.1 1 0 0 0 0-.1 0-.6-.1-1.1-.3-1.7-.6-.3-.1-.4-.3-.6-.4-.1-.4-.4-.7-.6-1.2 0-.7-.6.1-.6.4-.3.1 0 .1 0 .3-.1.1-.1.4 0 .6 0-.1.1-.1.1-.3s0 .1.1.1c.3.4.4.9.8 1 .1.1.4.3.6.4-.3.1-.6 0-.7 0 0-.1 0-.1 0-.3-.1-.3-.3-.4-.4-.3-.3.1-.4.3-.3.6h.1c.3.1.4.3.4.6.7.3 1.3.1 1.7-.4.3 0 .7.1.8-.3.1-.1 0-.4.3-.6v-.1c.5 0 .5-.4.5-.7z" fill="#6793b1"/><path d="m166.1 92.3c.8-.9-2 .1-.4.1.1-.1.2-.1.4-.1z" fill="#6793b1"/><path d="m165.4 93.5c.1 0 .3.1.4-.1 0-.1-.1-.3-.3-.4s0 0 0-.1c-.3-.4-.4-.4-.4.1-.1.5-.1.5.3.5z" fill="#6793b1"/><path d="m166.1 92.8s-.1.1-.1.3c0 .3.1.4.4.6.1.1.4 0 .4-.1.1-.4-.1-.6-.4-.7 0-.3-.2-.3-.3-.1z" fill="#6793b1"/><path d="m148.7 130.7c-.2 0-.2-.1 0 0-.2-.1-.2-.1 0 0-.1 0-.1 0-.3 0-.1 0-.3 0-.4 0h-.1c0 .1.1 0 .1.1-.1 0-.3 0-.3-.1s-.1-.1-.1 0c-.1-.1-.3-.1-.4-.1.1.3.1.7.1 1s-.1.4 0 .7c0 .1-.1.3-.1.4s0 .1.1.3v.4h.1l.1.1c.1.1.3 0 .4.1.3.1.6.1.7-.1.1 0 .1 0 .3-.1 0-.3 0-.6 0-.9s0 0 0-.1c-.1-.3 0-.4 0-.7 0-.1 0-.4 0-.6-.2.1-.1-.2-.2-.4z" fill="#005fa1"/><path d="m149.5 127.9c-.1.1-.3.3-.4.3-.4 0-.4 0-.4.3 0 0 0 .1-.1.1-.3 0-.4.3-.6.4-.1.1-.1.1-.3 0 0-.1 0-.1-.1-.1 0 0-.1 0 0 .1s0 .1-.1.1-.1 0-.1-.1c-.1-.1-.3-.3-.4-.1s-.1 0-.1-.1c-.1-.3-.3-.6-.6-.6 0 .1.3.3.3.6h.1c.3.3.3.7.3 1 .1.1 0 .4 0 .6.1 0 .3 0 .4.1h.1c0 .1.1.1.3.1 0-.1-.1-.1-.1-.1 0-.1.1 0 .1 0h.4c.1 0 .1 0 .1-.1s-.1-.3.1-.3c0-.1-.3-.4.1-.6v-.1c0-.1 0-.1.1-.1s.1.1.1.1v.4c.1-.4.3-.7.4-1.2.1-.7.6-1.2 1.1-1.5.6-.3 1.1-.4 1.8-.3 0-.1-.1-.1-.3-.1-.8.2-1.5.5-2.2 1.2zm-.5 1.5c-.1-.1-.1-.3-.1-.3-.3-.3.1-.3.1-.3s.1 0 .1.1-.1.2-.1.5z" fill="#9e3625"/><path d="m155.1 127.9c-.1.4-.1.7-.1 1.2v.1h-.1c-.1-.1-.4-.3-.1-.6-.1 0-.1.1-.3.1-.1-.4 0-.4 0-.4s0 0 0-.1-.1-.3-.1-.4c-.1 0-.3 0-.6 0-.3.1-.4 0-.6-.3-.1-.3-.4-.3-.4-.6h-.1c-.1 0-.3 0-.3 0 0 .1.1.1.1.1.3.1.4.3.6.4.3.4.4.9.6 1.3.1.6.1 1.2.3 1.6h.1s0-.1.1-.1c0 .1.1.1.3.1s.3-.1.6-.1c.1 0 .1-.1.3-.1v-.1-.1-.1c0-.1 0-.3 0-.6-.3-.4-.3-.8-.3-1.3z" fill="#9e3625"/><path d="m145.9 127.9s0 .2 0 0c0 .1 0 .3.3.3-.2-.1-.2-.3-.3-.3z" fill="#9e3625"/><path d="m149 128.7c-.4.4 0 0 0 .6 0-.2.1-.3 0-.6z" fill="#e12327"/><path d="m153.9 130.6c-.1-.6-1.5-3.2-1.5-3.5h.4c0 .9 1.1.7 1.5.9 0 .1.1.3.1.4s0 .3-.1.3c.1.1.1-.1.3-.1-.3.3.1.4.1.6.4-.1-.1-.4.1-1.3h.1v2.1c.1 0 .3 0 .4.1h.7v-.1c.1-.1 1.7-.4 1.7-.7s0 0-.1 0c.1 0 .3 0 .4.1 0-.1-.3-.3.1-.3h.1c0-.1 0-.1 0-.3.1 0 .1.1.3.1.1-.4.1-.7-.1-1-2.1-3.4-1-9.5-1.8-13.3 0 0 0 0 0-.1 0-.7-.7-1.8-.7-2.5 0-.6-.6-.9-1-.9l.1.1v.1c1.8.9.4 5 .4 6.2-.1 0-.1-.4-.3-.4 0-.1-.1-.3-.1-.4-.6-1.2-1.8-2.5-2.5-3.7 0 0 0 0-.1-.1-.1 0-.1-.1-.3-.1-.1-.3-.1-.1-.3 0-.1.6-.4 1.3-.4 1.9-.3.6-1.1 2.6-1.8 2.6-.1.1-.3.3-.4.4-.3-1.6-.8-3.5-1.3-5.1-.4-.3-.7-.3-1 .1v.1.3c0 .1-.1.3-.3.4v.1c-.4.4-.8.9-1 1.5v.1c-.4 0-.7 1.3-.7 1.8h-.1v.1c-.1 0-.1-.1-.1-.1s0 0 0-.1c-.3-.7-.3-5.1-.3-5.1-.1.1 1.1-.9.8-1.2-.4-.4-2.4 1-2 .9 0 .1-.1.1-.1.1-.1.3-.3.4-.4.6-.1 1-.1 2.3-.6 3.2-.1 0 0 .1 0 .1-.7 2.1-1 4.4-1.5 6.4-.1.6-3.1 6.4-2.4 6.4 0-.1.1-.1.3-.1.6-.1 1.3-.1 1.8.1 0 .1 0 .3.3.3v.1h.1c2.2 1.2 2.8-7.9 3-8.4.3 0-.1 3.7 0 4.3-.1.1-.1.3-.1.6 0 1.2.1 4-1.3 4.7v.6c-.3.7-1.4 7.3-.3 7.9v.1c0 .4 1.8 8.2 2.5 8.2 0-.4.3 1.2.4 1.3.4.4 1.3 4.7 1.7 5.3-.6 1.2 3 1.3 3 2.3.6 0 0-2.5 0-3.1-.1-.4 0-.7.1-1 .6-.4 3.2-1.6 2.7-2.9.1-.4.3-.9 0-1.3.3-2.5 2.2-8.5 1.5-10.7.1-.1 0-.3 0-.4.3-2.1 0-3.2 0-5.3.1 0 0-.2 0-.3m-10.3-10.6c0-.7.1-1.5.1-2.2.2.8.2 1.5-.1 2.2zm4.4 33.6c-.1.1-.1.4-.4.3.4-.4.8-1 1.1-1.5zm3.5-4.6c0-.1.1-.1.3-.1-.2 0-.3 0-.3.1zm.4 0c.1 0 .1-.1 0 0 .1-.1.1 0 0 0zm-5.3-20.2c0-.3-.3-.3-.3-.6.8 0 .7 1.3 1.4.7.7 0-.3.3 1-.3 0 0 0-.1.1-.1.4-.7 2.8-2.1 3.5-1.3-2 0-2.8 1-3.4 2.9 0-.4-.1-.7-.3-.3-.3 0 0 .1 0 .4 0 .1-.1.1-.1.3 0 .1.3 2.1.3 2.1s0 0 0 .1c0 1.8.4 15.8-.6 15.8 0 .4-.1.9-.1 1.3.1.1 0 .1-.1.1v.9c-.3.3-.1 0-.1-.3-.1.1-.7 2.1-.8 2.2-.3-.3.1-.9.1-1.2h-.2c0-.7.3 0 .4 0 0-.6.4-2.3.8-2.8v-.1-.1c0-.4-.1-.9-.6-1.3-1.1-4.5-.6-8.9-.6-13.5 0-.7.1-2.2-.1-2.9.1-.7-.1-1.4-.3-2z" fill="#e12327"/><path d="m169.5 135.6c0-.1-.1-.1-.3 0h-.2c-.1 0-.3.1-.6.1-.1 0-.3.1-.3.3s0 .4.3.4c0 0 0 0 .1.1.3 0 .4-.1.6-.3s.1 0 .1-.1c.4-.1.3-.4.3-.5z" fill="#f2a420"/><path d="m128.6 135.7c-.3-.1-.3-.4-.6-.3 0 0 0 0-.1 0-.3-.1-.6-.1-.8 0-.3.3-.4.6-.3 1 .1.1.1.3.4.3.4 0 .7-.1 1-.3.1 0 .1-.4.4-.7.1.2.1 0 0 0z" fill="#f2a420"/><path d="m141.6 130.6c-.6 0-1.1-.1-1.7-.3-.1.1 0 .1-.1.3.1.4.1 1 0 1.5-1.4.7-.4-1.2-1-1.2 0 .3 0 1.2-.1 1.3 0 0 0 0-.1.1v.1c-.7-.3-.8-.9-.4-1.9l-.1-.1c-.1-.1-.1 0-.3.1v.6c0 .4 0 .9.1 1.3-.1.1-.3 0-.3 0-.1.1-.3 0-.4-.1 0-.1 0-.3-.1-.3 0-.1-.1-.3 0-.4 0-.1-.1-.3-.1-.3 0-.1 0-.3-.1-.3l-.1-.3c-.3.6-.4 1.2-.3 1.8-.3.3-.3-.1-.4-.1 0-.1-11.8.6-13.1.3-.7 0-1.8.1-2.4 0 0 .3.3.1.1.3 0 .1-.1.1-.3.1v.1c1.3 1.3 3.2.6 4.6 1.3.1.3.1.6.4.7 0 .4.1.7.4 1 0 1.8 1.8 1 2.7 1.5 0 .6 1.7-2.6 1.3-1.3.3-.1.6-2.1.6-2.2.8 0 1.5-.3 2.4-.3.3.3 2.8-.1 3.2-.1.1.1.3 0 .3 0 .7 0 5.2.1 5.2-.3 0-.1 0-.3 0-.3v.3h.1c0-.7 0-1.6.3-2.3.1-.1 0-.3.1-.4-.1-.2-.1-.5-.4-.2" fill="#005fa1"/><path d="m160.2 132.3c.1.1-.3-1.8-.7-1.5 0 .7 0 1.5-.1 2.2.3-.3.6-.4 1-.3-.1-.1-.1-.2-.2-.4z" fill="#6793b1"/><path d="m182.9 131.3c0-1.2-4.4-.3-4.4-.6-.3 0-.6 0-.8 0-.1 0-1.4 0-1.5 0-.4 0-.7 0-1.1 0-.8.1-1.5.1-2.4.1-.1 0-.4-.1-.6-.1-.8.3-1.4 0-2.2 0-.3 0-2.2 0-2.2 0-.8 0-1.7 0-2.5 0l-.1-.1c-.3.3-2 0-2.4 0 0 .1 0 .3-.1.3-.3.4-.7.4-1.1.1 0 .1.1.1.1.3 0 .4-.1 1.3-.1 1.5 1 .1 16.3.3 16.3.6 1.7-.6 3.4-.4 5.1-.4.6.1.8-.1 1.1-.7-1.1-.5-1.1-.7-1.1-1zm-19.8 0c0-.1 0 0 0 0zm18.2.7c0-.1 0-.1 0 0zm.4-.2c0 .1 0 .1 0 0z" fill="#6793b1"/><path d="m151.2 102.6c-1-1.3 1.3-.9 1.3-1.2 0 .2-.5 1.9-1.3 1.2z" fill="#006b3a"/><path d="m147.8 101.4c-.1 0-.3-.1-.4 0-.1-.1-.3-.1-.4-.1-.4.1-.8.4-1 1-.1-.1-.1-.3 0-.4.1-.4.4-.6.8-.7.3-.2.7-.1 1 .2z" fill="#d3b4af"/><path d="m153.7 100.4c0 .1 0 .1-.1.3-.1 0-.1-.1-.3-.1-.3-.1-.3-.3-.3-.6 0-.1.1-.1.1 0 .3 0 .6.1.6.4z" fill="#e12327"/><path d="m146.4 100.2c-.3.3-.4.4-.7.7 0 0 0 .1-.1 0v-.1c0-.4.3-.6.8-.6z" fill="#e12327"/><path d="m153.3 101.6c-.1-.1-.4.1-.4-.3-.1.1-.3 0-.4.1-.1 0-.1 0-.1-.1.1-.3.4-.3.7 0 .1.1.1.1.2.3z" fill="#d3b4af"/><path d="m146 102.3c0-.4 1-1.3 1.4-.9.1 1-.8 1.5-1.4.9z" fill="#006b3a"/><path d="m151.9 104.9c-.1-.3-.3-.4-.3-.6s-.1-.1-.1-.1h-.1c-.1.1-.3.4-.6.7-.4.3-1 .6-1.5.3h-.1c-.3-.3-.6-.3-.8-.3-.1 0-.1.1-.1.3s0 .1.1.1c.3 0 .4.3.7.3.4 0 .7.1 1.1 0 .1 0 .4 0 .6-.1.3 0 .6-.1.7-.4h.3c-.2-.2-.2-.2.1-.2-.4.2-.1.2 0 0 0 .2 0 .2 0 0z" fill="#e12327"/><path d="m150.2 105.7c-.1 0-.3.1-.4.1s-.3 0-.4.1c0 0-.1.1 0 .3.4.3 1 .1.8-.5.3 0 .2 0 0 0z" fill="#e12327"/><path d="m149.8 103.6c-.1 0-.4.1-.6 0-.1 0 0 0 0-.1.1-.3.3-.4.7-.3.2 0-.1.3-.1.4z" fill="#e12327"/><path d="m141.9 130.6c.2 0 .2 0 0 0 .4-.1.1-.6.1-.6 0-.1-.3-.1-.4-.1-.3-.3-.4-.6-.8-.6 0-.1-.1-.1-.1-.3 0 0 0-.1-.1 0v-.1c-.1 0-.3-.1-.3-.3-.6-.3-1.1-.3-1.8-.1s0 0-.1 0c0 0 0 .1-.1.1-.1.1-.4.1-.4.4-.1 0-.3.1-.3.3-.1 0-.3 0-.4.1-.6.1-1 .4-1.1 1.2-.1.1-.1.3-.1.4 0 .3-.1.4-.1.7.1.1.1.4.1.6.1 0 .1.4.4.1.1-.4 0-1 .1-1.5.1-.3.3 0 .3 0 0 .1.1.3.1.3 0 .1.1.3.1.3-.1.1 0 .3 0 .4.1 0 .1.1.1.3.1.1.1.3.4.1.1 0 .3.1.3 0v-.1c0-.3-.1-.6-.1-.9v-.1s0 0 0-.1 0-.4 0-.6c0-.1.1-.1.3-.1l.1.1c0 .6.1 1 0 1.6 0 .4.3.3.4.3 0 0 0 0 0-.1 0 0 0 0 .1-.1.1-.3.1-.4.1-.7 0-.1 0-.3 0-.4v-.1s.1-.1.1 0c0 .3.1.6 0 .9 0 .1 0 .3.1.4.3.1.4 0 .7-.1 0-.4 0-1 0-1.5 0-.1 0-.3.1-.3.1.1.4.1.6.1.4 0 .7.1 1.1 0z" fill="#f2a420"/><path d="m156 103.2c0-.7-.7-2.9-1.1-3.4-.1 0-.1 0-.3 0 .1-.3-.1-.4-.1-.6-.4-.4-.8-.7-1.4-.6 0 0 .1 0 .1-.1 0 0 .1 0 0-.1h-.2c-.3.7-1.7 1.8-1.7.7-.8 0-1.4.7-2.2.7-.7-.7.3-.3.3-.7-.3 0-.6.3-.8.3-.1.1-1.7.7-1.7 0 .3-.3.7-.4 1.1-.4 0 0 0-.1.1-.1-.1 0-.3-.1-.6 0 0 0 0 0 0-.1-.6.1-3 1-3.1 1.9-.1.6-.4 1.2-.8 1.8-.1.1-.1.3-.1.4.1.1.1.4 0 .7-.1 0-.3 0-.4 0-.3-.1-.4-.4-.6-.7-.3 0-.3-.3-.3-.4-.1 0-.1-.1-.3 0-1.4 0 0 3.1.8 3.4 0 1.5.3 2.3 1.5 3.1 0 .1 0 .1.1.3.3.1.7.3 1 .3 0-.1-.1-.1-.1-.3.4 0 .7.1.8.4.3-.3.6-.3 1 .1 0 .7 1.5 1 2 1h.3c.4.4 1.8-.7 2.2-.4.8 0 1.3-.1 1.3-.7s.1.1.1 0c.1 0 .3 0 .3-.1 0 .1.3.1.1.3.1 0 .1 0 .3-.1 0-.1 0-.1.1-.3-.1 0-.1-.1-.1-.1.6-.3 1.1-.6 1.7-1 .4-.3.7-.9 1-1.3.1-.3.1-.7.1-1 0 0 0 0 .1-.1 1.1 0 1-1.9.6-2.5-.1 0-.3 0-.4.1 0 .3-.3.3-.4.4.1.1.3.1.3 0l.1-.1c.1.1.3.1.1.3.1 0 .1 0 .1.4m-14.3-.4c-.8-.4-1.1-.9-.6-1.5.3.3.6.6.7.9-.2.2-.1.5-.1.6zm7.2-1.2c.3.1 0 .3 0 .4-.1 0-.4 0-.6 0 0-.2.2-.4.6-.4zm-4.1-2s0 .1 0 0c-.4-.3-.1-.6.7-.7-.3.2-.5.5-.7.7zm1 2.2c-.3-.1-.6-.4-.6-.9-.3-.3 2.4-2.1 2.7.3-.3.3-1.5 1.7-2.1.6zm2.7 3.1c-.1-.1 0-.1 0-.3.3-.1.6-.1.8-.3 0 0 0 1.1-.8.6zm2.5-1.2c-.3-.1-.4 0-.6.1-.1 0-.1 0-.3 0-.4 1-3.1.9-3.1-.1.3 0 .7 0 .8.3.8.1 1.8-.1 2.2-1h.1c.1.1.3.3.4.6.5-.1.5-.1.5.1zm1.5-2.4c-.1 0-.1.2 0 0-.1.2-.1.2 0 0-.1 0-.1.2 0 0 0 .1 0 .1-.1.3-.7.1-1.3.3-2 .3 0-1-.3-1.8 1-1.9h.1c.1-.3.4-.3.7 0l.7.7c-.4.2-.1.5-.4.6zm.2-2c-.1 0-.1-.1-.3-.1-.4-.4-.4-.6-.1-.6.1.1.4.1.4.4.1.1.1.3 0 .3z" fill="#f2a420"/><path d="m161.9 130.6c-.3 0-.6 0-1-.1-.1 0-.1 0-.3 0 .1-.3 0-.3-.1-.4-.1 0-.1 0-.3 0 0-.1 0-.1 0-.3-.1-.1-.1-.1-.3 0-.1-.1-.4-.3-.6-.4-.1 0-.3 0-.3-.1-.1-.1-.3-.3-.6-.3-.1 0-.1-.1-.3-.1v.3h-.1s0 0-.1 0-.3 0-.1.1c.1 0 .1 0 .1.1-.1-.1-.3-.1-.4-.1h.1v.1c-.3.1-.6 0-.8.3-.3 0-.6.1-.8.3-.1 0 0 .1 0 .1-.1 0-.3 0-.3 0-.1 0-.3-.1-.4 0-.1-.1-.1 0-.3-.1h-.1v.1.1.1c-.1 0-.1.1-.3.1v.1.3.3c0 .3.3.4.3.7v.1c.1 0 .3-.1.4 0 .1 0 .3-.1.3-.1 0-.3.1-.6.3-.9.1-.3.3-.3.6-.3s.6.1.8.1c.4.1.6.6.7 1 0 .1.1.4.3.6s.3.3.4.3h.6v-.1c.1-.1 0-.1 0-.3 0 0 0 0 0-.1.1-.1 0-.3 0-.3v-.1c.1-.3 0-.6 0-.9 0-.1 0-.1.1-.1 0 .1-.1.1 0 .1.3 0 .3.3.4.4.1.3.1.7.3 1 .1 0 .1.1.1.4 0 0 0 .3.1.1.1 0 .1-.1.3-.1.1-.1.3 0 .3-.1 0-.3 0-.6 0-.9 0-.1-.1-.3-.1-.4 0 0-.1-.1-.1-.3.3 0 .6 0 .8.1.3 0 .3-.1.3-.3.2 0 .2-.1.1-.1zm-2.6 1.2c0-.1 0-.3 0-.3s0 .1 0 .3z" fill="#f29321"/><path d="m176.8 133.1c-.3-1-5.2-.3-6-.3-1.3 0-5.5-.9-6.3 0 0 .1-.3.1-.4 0-.3 0-3.5-.1-3.5-.3-.1 0-.1.1-.3.1 0 0-.8-.1-1.1.1.1-.7.1-1.5.1-2.2-.3-.3-.1.9-.1 1.3v.4.1c-.4.1-.7 0-1-.3-.3-.6-.6-1.2-1-1.6-.6-.3-1-.1-1.4.1.3.7.3 1.2-.3 1.3-.1 0-.3 0-.4 0 0-.3-.1-.6-.3-.9 0-.1 0-.1 0-.3s0-.3 0-.4c-.1 0-.4 0-.6.1-.1 0-.3.1-.3-.1l-.1.1c0 .1-.1.1 0 .3.1.3-.3 2.2.1 2.6 0 .1.3.1.1.3 2 0 4.1.1 6 .1.4 0 1.5.1 1.8-.1 1.3 0 2.7.4 3.9.4 1 .7 1 2.1 2.1 2.6l.1.1v.1c.1 0 2.5 1 2.5-.3.7-.7 1.3-1.5 1.8-2.3.3 0 .4-.3.6-.4.6 0 2.8.1 3.2-.3.5.4.5 0 .8-.3-.2.3 0 .1 0 0zm-7.3 3.1c-.3.3-.6.4-.7.4-.6-.6-.4-1 .4-1h.1c.1-.1.3-.1.3 0-.1.1 0 .4-.1.6z" fill="#005fa1"/><path d="m154 115.9c0 1.8.4 3.5.4 5.3.1.6.4 2.5.1 2.8-.6-1.9-.3-5-.4-6.9 0 0-.1-1-.1-1.2z" fill="#9e3625"/><path d="m157.1 104.2c.1-.3 0-.4.1-.6 0-.1-.1-.1-.1-.3 0 0-.1 0-.1.1-.1.1-.3.1-.3 0-.3 0-.1.4-.1.4 0 .1.1.3 0 .4 0 .3 0 .3.3.3-.2 0 .1-.2.2-.3z" fill="#e12327"/><path d="m156.8 102.9c0-.6.1-1.5-.1-1.9 0-.1 0-.1-.1-.3-.1-.3-.1-.7-.6-.9-.1 0-.3-.1-.3-.3-.1-.1-.1-.3-.3-.4-.3-.1-.4-.1-.7-.3-1.1-.7-2.4-1-3.8-1.3h-.1c-.1.1-.3 0-.3.1-.1 0-.3 0-.4.1-.3-.1-.4-.1-.4.1s0 0-.1 0c-.4-.1-.7 0-1 .1-2.1.6-3.9 1.2-5.8 2.5-.1.1 0 .3-.1.3v.1c-.1.1-.1.3-.1.4-.1.3-.1.6-.1.9.1.1.1.4.3.4.1.3.1.6.4.6.1.1.3.3.6.1-.1-.4 0-.7.1-1.2.1-.1.1-.3.3-.4.1-.4.1-.9.6-1.3.1-.9 2.4-1.5 2.8-1.8.1 0 .3-.1.3-.1v.1c.1-.1.3 0 .6 0 0 0 0 .1-.1.1.3-.1-2.4.7-.6.7.4.1.8 0 1.1-.3.3-.1.6-.3.8-.3-1.1 0-.3.4-.4.6.4 0 .7-.1 1-.4.3-.1.6-.3.8-.4.1-.1.3.1.4.1 0 .1-.3.3-.1.4.6 0 1-.3 1.4-.6.1-.1.4-.3.4-.6h.1v.1s-.1 0-.1.1c.7-.1 1 .1 1.4.6 0 .1.4.3.1.6h.3c.1.3.1.7.3 1 .3 1 .8 1.5.8 2.5.1.4.3 0 .4-.1.2.6.3.6.3.3 0 0-.1.1 0 0z" fill="#9e3625"/><path d="m178.2 126.6c.1 0 .4-.3.4.1h.1c.6 0 1.1 0 1.5.6.1.1.3.3.4.6s.7.4.8.3c.1 0 .1-.1.1-.3 0-.1 0-.3-.1-.3s-.3-.1-.4 0c-.3.1-.6-.1-.6-.6 0-.1 0-.1.1-.1s.1 0 .1.1c.1.3.3.4.6.3.3 0 .7.3.7.4s-.1.6-.4.7-.6.4-1 .1c-.3-.3-.6-.6-.8-.9-.1-.3-.4-.4-.6-.4-.1-.1-.4 0-.6.1 0 0 0 0-.1 0 0-.1-.1-.3-.3-.4.4-.1.2-.1.1-.3z" fill="#6793b1"/><path d="m175.6 129.6c0 .1.3 0 0 0 .1.4 0 .4-.3.4-.3-.1-.4-.3-.3-.6.4 0 .5.2.6.2z" fill="#e12327"/><path d="m175.1 129.1c-.1.1 0 .3-.1.3s-.1-.1-.3-.1c-.1-.1-.1-.3 0-.6 0-.1.1-.1.3 0s-.1.3.1.4z" fill="#e12327"/><path d="m174.2 128.4c0-.2 0-.2 0 0 0-.3 0-.4.1-.4s.1.1.1.3v.4s-.1.1-.1 0c-.1-.2-.1-.2-.1-.3z" fill="#e12327"/><path d="m178.9 127.4c-.1-.1-.3-.3-.3-.4-.1-.1-.3-.3-.4-.3s-.4.1-.4.3c0 .1 0 .1-.1.3v.1c.3.1.4.4.6.7.3 0 .6-.1.7-.3 0-.1-.1-.3-.1-.4z" fill="#006b3a"/><path d="m177.3 129.7c-.3 0-.4-.1-.4-.4h-.1c-.7-.7-1.1-1.6-1.5-2.6-.8.9.7 3.2 1.7 3.2 0 .1.3.3.6.3-.3-.2 0-.4-.3-.5z" fill="#e12327"/><path d="m178.2 128.2c-.2 0 0-.1 0 0 0-.4-.1-.7-.6-.9 0-.1 0-.3-.1-.4-.4 0-.7-.1-1-.4-1.5-.6-2.5.6-2.7 2.1-.6 0 .6 1.8.7 1.9h.1c.7.7 2.2.6 2.8 0v-.1c.1-.1.3-.1.4-.3 0-.1.1-.1.1-.3.1-.1.1-.3.1-.4.6-.1.2-1.2.2-1.2zm-3.7.3s-.1.2 0 0c-.1 0-.3-1.4 0 0zm.4 1.1c-.1 0-.1-.1-.3-.1-.7-.7.3-.4.6-.1-.1-.1-.1 0-.3.2zm.6.5c-.4-.6-.4-.7.3-.6.3.2.1.5-.3.6zm.6-.5c-.1 0-.1-.1-.3-.1-.4-.4-1.1-1.9-.7-2.6.7.7.8 1.9 1.5 2.6h.1c-.1.1 0 .1 0 .1.6.6.4.1.4.7-.3 0-.6 0-.6-.3 0 0 0 0-.1 0" fill="#f2a420"/><path d="m171.7 121.1c0-.6-.1-1.2-.3-1.8 0 0-.1-.1 0-.1 0-.1 0-.4-.1-.6 0-.1-.1-.3-.1-.4-.3-1 .3-1.9-.8-2.3-1.1-.1-2.2.1-3.2.7-.1.1-.3.3-.1.6 0 .3.1.7.3 1 0 .1.1.3 0 .4-.1.3 0 .6.1.7 0 .3.1.6.3.9v1c.1.6.1 1.2.3 1.8 0 1.8 2.4 1.2 3.4.7.3-.3.4-.6.4-1-.1-.8-.1-1.2-.2-1.6zm-1.4-1.5c0 .4-.4.4-.7.6-.3 0-.7 0-1.1.1-.3-.3-.4-.6-.4-1 0-1.6.8-.1 1.4-.7.1 0 .3 0 .6.1.2.2.3.4.2.9z" fill="#9e3625"/><path d="m172.8 129.3c0-1-.1-2.2-.8-2.8 0-.1-.1-.1-.1-.3-.1-.1-.1-.1-.1-.3.1.1.1.4.3.6.1.1.1.1.3.1 0-.3 0-.6-.3-.9 0-.1-.1 0-.1-.1h-.1l-.1.1c-.3.1-.7.1-1 .3-.4.4-.8.4-1.4.1 0 0-.8 0-.6.3.3 1.2.4 2.3.6 3.5h.1c0-.1.1-.1.1-.1 0 .1-.1.1-.3.1 0 .3.3.3.4.6.4.3.8.3 1.3.1v-.1h.4c.3 0 .4.1.7.1.3-.1.4-.3.7-.3.2-.2.2-.5 0-1z" fill="#9e3625"/><path d="m170.6 114.2c.1-.1.1-.1 0-.3 0 .3-.3-2.8-.7-2.3-1 .4-2.5.1-3.7.7-.4.3-.4.7-.1 1.2-.1-.3.1 2.5.8 1.8h.1.4.1c.3 0 2.1-.3 2.5-.1h.1s.1-.1 0-.1c.3-.8.3-.8.5-.9z" fill="#9e3625"/><path d="m171.4 123.5c-1 .6-2.5.4-3.4 1l.1.1c.1-.1.4 0 .6 0 0 .1.1 0 .1 0 .4 0 3-.6 2.7-.9.2-.3.1-.2-.1-.2z" fill="#6793b1"/><path d="m172 125.3c-.3-.3-.4-.1-.7.1 0 0-2.5.3-2.7.4l-.1.1c-.4.1-.4.3 0 .4h.3.1c0 .1-.1 0-.1.1h.4c0-.1-.1-.1-.1-.1.1 0 .1 0 .1.1.6.3 1 .3 1.4-.1.4 0 .8-.1 1.1-.4h.1c.3 0 .3-.3.2-.6.1 0 0 .2 0 0z" fill="#6793b1"/><path d="m170.3 114.9c-.1 0-.3 0-.4 0-.3 0-.6.1-.8 0 0 0-.1 0-.3 0-.4.1-.7.3-1.1.3-.3 0-.7.1-1 .4-.1 0-.1.1-.1.3 0 .1.1.3.3.3.3 0 .6-.1.8-.3.4-.1.7-.3 1.1-.3s.8 0 1.3-.1c.1 0 .3 0 .3-.1.2-.5 0-.5-.1-.5z" fill="#6793b1"/><path d="m171.8 124.1c.1 0-3 .6-3 .6-.1 0-.4-.1-.6.1 0 .4 0 .7.3.9.1 0 .1 0 .3-.1.8 0 1.5 0 2.4-.3.3-.3.4-.4.6-.1h.1c.1-.1.1-.4.3-.7.2-.1.1-.4-.4-.4zm-3.5.9c0 .1 0 .1.1.3-.1-.1-.1-.1-.1-.3z" fill="#9e3625"/><path d="m170.2 118.6c-.1-.1-.4-.1-.6-.1s-.4 0-.6 0c-.1-.1-.4 0-.6 0-.3.1-.4.4-.3.7 0 .3.1.6.1.7 0 .3.1.3.3.3.4 0 .7 0 1.1-.1.3 0 .6-.1.7-.6.1-.4 0-.6-.1-.9z" fill="#6793b1"/><path d="m123.5 119.6c0 .1.1.3.1.4v.1c0 .1-.1.1-.1.3-.1.1-.3.4-.4.6-.1 0-.1 0-.3 0-.3 0-.4.1-.7.1-.1 0-.1-.1-.3 0-.1 0-.1-.1-.3-.1 0-.1-.1-.1-.1-.3-.3-.1-.1-.4-.1-.7 0-.6.4-.9.8-1.2.1-.1.3-.1.4 0s.4.1.6.3c0 .2.1.3.4.5z" fill="#f2a420"/><path d="m127.9 114.6c.1 0 .1 0 0 0 .1 0 .1-.1.3-.1h.7c.1.1.1.3.3.4.1.3.1.9-.1 1-.1.1-.6 0-.7.3h-.1c-.1 0-.1 0-.3-.1-.3-.3-.6-.4-.6-.7 0-.1.1-.3.1-.4.4-.1.4-.2.4-.4z" fill="#f2a420"/><path d="m128 123.4c-.3.1-.3.6-.6.6-.1 0-.1.1-.3.1h-.1-.1-.1c-.1 0-.4 0-.6 0-.1 0-.1 0-.3-.1-.1-.1-.3-.3-.6-.6.1-.3 0-.6.1-.9.1-.1.1-.3.3-.4.1-.1.4-.3.6-.4h.1.3c.1.3.4.1.6.1.3.3.6.4.7.9.2.3 0 .4 0 .7z" fill="#f2a420"/><path d="m124.9 127.2c-.1 0-.4-.1-.3-.4 0 0 0 0-.1-.1v-.1c-.1-.3 0-.4 0-.7s0-.3.3-.4c.3 0 .4-.1.7-.1h.4s.1 0 .1-.1c.1.1.1.3.3.4 0 .1-.1.3-.1.6v.3c.1.1.1.3.1.4-.1.1-.4.1-.4.4-.1.1-.3.1-.4.1-.1-.1-.4-.1-.6-.3z" fill="#f2a420"/><path d="m125.8 116.5c0-.1 0-.1 0 0-.3-.6-.7-.7-1.1-.3 0 .1-.1 0-.1.1-.1.3-.3.4-.1.7l.1.1c.4.3.7.3 1 0 .1 0 .3-.1.1-.3-.1-.1-.1-.3.1-.3z" fill="#de282d"/><path d="m128 106.8c-.1 0-.4 0-.6.1-.3.1-.3-.1-.6-.1 0 0-.1-.3 0-.4s.1-.3 0-.3c-.1-.1-.3-.1-.4 0s-.3.1-.3.3c-.1.1-.3.1-.4 0s-.3-.3-.6-.3c-.1 0-.3.6-.1.7.3.3.3.6.6.9.1 0 .1.1.1.3s0 .1 0 .3c.1.1 0 .1-.1.1s-.3 0-.4 0c-.1.1-.1.3-.1.4 0 .3.4.6.7.4.1 0 .1 0 .1-.1l.1-.1v-.1c.1-.1.1-.4.3-.3 0 .1.1.1.1.3v.1c.1 0 .1.1.3.1.1.1.4.1.6 0 .1-.1 0-.3-.1-.4.1 0 .3 0 .3.1.1 0 .4 0 .4-.1.1-.1 0-.3-.1-.4-.3-.3-.3-.3 0-.6 0 0 .1 0 .1-.1.1 0 .1-.1.1-.3.3-.5.2-.5 0-.5z" fill="#f2a420"/><path d="m124.8 107.9c0 .1.1.3.3.3.4 0 .6-.1.6-.6-.1 0-.3 0-.6 0-.3-.2-.5 0-.3.3z" fill="#f2a420"/><g fill="#de282d"><path d="m131.4 122.8c-.3-.1-.7-.1-1.1 0-.1 0-.3 0-.4 0 0 0-.1 0-.1.1-.3.3-.3.6-.3 1 .1 0 .1.1.3.1.1.3.3.6.6.7.1.3.3.3.6 0 .3-.1.6 0 .7-.4 0-.1.1-.1.1-.3.1 0 .1-.3.1-.3-.2-.3-.1-.7-.5-.9z"/><path d="m125.6 112.4-.1-.3c0-.3-.3-.1-.4-.1-.3.1-.4.3-.7.3-.1 0-.4.7-.4 1s.3.4.4.7c.1 0 .3 0 .3.1.1-.1.4-.1.6-.3 0-.1 0-.1.1-.1h.1c.4-.4.3-.9.1-1.3z"/><path d="m130.4 118.4c-.1-.1-.1-.1 0 0-.3-.4-.8-.6-1.1-.3-.1.1-.4.3-.6.4-.1.3 0 .6.1.7l.1.1s.1 0 0 .1c.1 0 .3.1.4.1s.3 0 .3-.1c0-.1.3-.1.4-.3v-.1c.5 0 .4-.3.4-.6z"/><path d="m121.7 124.4c0-.1 0-.1 0-.3 0-.1-.1 0-.3 0-.1 0-.3 0-.4-.1s-.1-.1-.3 0c-.1 0-.3 0-.3 0-.1 0-.4 0-.4.3-.1.1-.1.4-.3.6-.1.3-.1.6 0 .9 0 0 .1.1.1 0 .1.3.3.3.6.3.4 0 .7-.1 1-.4.1-.3.3-.6.4-.9v-.1c-.1-.3-.1-.3-.1-.3z"/><path d="m129.4 130c-.1 0-.1-.1-.3-.1-.3-.3-.6-.6-.8-.9l-.1-.1c-.3 0-.4-.1-.7-.1-.1-.1-.3-.1-.4-.1s-.3-.1-.3-.3c-.1.1-.3 0-.4.1s-.3 0-.4-.1-.3-.1-.3-.1 0 0-.1 0c-.1 0-.3-.1-.6-.1-.1.1 0 .4-.3.4h-.1c0-.1-.1 0-.1 0-.1.1-.4.3-.4.6-.3.3-.6.7-1 .9-.4.1-.4.1 0 .4h.3.3s0 .1.1.1c.3 0 .4.1.7.1.1 0 .4 0 .4-.3h.1s.1.1.1 0c.3 0 .6.1.7-.1.1-.1.1-.3.4-.1.1.1.3 0 .4 0s.3-.1.3 0c0 0 .1.1.1 0 .1-.1.3 0 .4 0 0-.1-.1-.3-.1-.4 0 .1.1.3.1.4 0 0 0 0 .1.1.3.1.6.1.8 0l.1.1c.4.1.7.1 1.1 0l.1-.1v-.3c.1.3 0 .1-.2 0z"/><path d="m124.1 123c0-.1-.1-.1-.1-.3-.1 0-.4-.1-.6 0-.3.1-.6.1-.7.4-.1.1 0 .3-.1.3-.1.1-.1.3 0 .4v.1h.1v.1l.1.1c.3.1.4.4.7.3.1 0 .3-.1.3-.3.1 0 .1-.1.1-.1 0-.1.1-.3.1-.4v-.1c.2-.4.2-.4.1-.5z"/><path d="m127.3 118.6c0-.3-.1-.4-.1-.6-.4-.3-.8-.3-1.1 0-.1.1-.4.3-.4.6l-.1.1c0 .4.3.6.4.9.3.1.6 0 .8.1 0-.1.3 0 .3-.1.1-.1.3-.1.3-.3.1-.2-.1-.4-.1-.7z"/></g><path d="m134.2 127.2c-.4 0-.7-.6-.6-.9-.7 0-1.4-.1-2-.4 0-.9 1.7.4 1.7-.4.1 0-1.4-1.5-1.5-1.9 0 .1 0 .3-.1.3v.1c0 2.1-2.1-.1-2.2-.1 0-.9.6-.9.6-1.5.4 0 1.7.3 1.8.3.1-.4 0-.7-.3-1-.3 0-.6 0-.8 0 .7.3 1.1 0 1.1-.7-.3 0-.6 0-.8 0 0-1 .3-1-.8-1.5 0 .1-.3.1-.4.3-.3.1-.4.1-.7 0 0-.3-.1-.7-.3-1 .1-.3.4-.3.6-.4h-.1c.3-.3 1-.4 1-1 0 .6-1.1-1.2-1-1-.8.9-1.5-.3-1.5-1 .1 0 .3-.1.3-.3.4 0 .3-.1 1-.1 0-1-.4-1.9-1.3-2.6 1-1-1.4-3.2-1.5-3.2-.1 1-1.3 2.3-2.1 3.1.6-.1 1.1.1 1.4.4.4.3.4.7 0 1.3-.1.1-1.1.7-1.1.3-.3.1-2.2 2.6-1.1 2.6-.1.1 0 .1 0 .3-.3 0-2 .6-1 .6-.1.3-.3.7-.4 1 0-.3 2 .9 2 1.8-.6.9-1.1.6-2 .6 0-.1-.1-.1-.1-.3-.3 0-.6.1-.3.4-.4.3-.8.6-1.1.9.4.1.7.3 1.1.4-.7.3-1.3.6-1.4 1.2.3 0 2 .1 2.2.4 0 .6 0 1-.4 1.5h.1c-.6.1-2.1.4-2.5-.4-.3.4-.3.7 0 1-.4 0-1.4 1.9-1.4 2.1.3 1.9 3 .1 3.8.1-.1 0 3.9-.1 4.2-.1.3.1 1 .3 1.3.1.4.3 1 .6 1.5.7 1 0 1.4-.3 1.4-1.3.6-.1.7 0 .7.3.1.3.3.3.6.1.4.4 3.4.4 3.8-.1-.7-.5-1.1-.7-1.4-1zm-6.7-12c0 .1-.1.3-.1.4-.1-.1-.1-.3.1-.4zm-1.4 2.8h1.1c-.1.6-.1 1-.3 1.6-.1 0-.3 0-.3.1-1.1 0-1.7-1.1-.5-1.7zm-1.5-3.8c0 .1-.1.1-.1.3 0-.2 0-.3.1-.3zm-.1 2s.1 0 0 0c1.3-.9 1 .4 1.3.6.4.3-2.6.7-1.3-.6zm.6 7.2c0 .1 0 .1 0 0zm-.9-6.4s0 .1 0 0zm-.1 1.6c-.1 0-.3.1-.4.1.1 0 .2-.1.4-.1zm-1.3-1.1c.3.1.6.1 1 0-.3.3-.7.3-1 0zm1.4 5.9c-.1.1-.1.3-.1.4 0 .1 0 .3-.1.3-.3 0-.7 0-1 0l-.1-.1s0 0 0-.1h-.1c.2-.9 1.8-2.1 1.4-.5zm0-4c.1 0 .1 0 .3.1-.1.1-.1-.1-.3-.1zm1.7 7.8c-3 1.8.1-3.4.1-2.2.9.9-.1 1.6-.1 2.2zm2.1-3.8c-.6.3-.4.7-1 .7 0 0 0 0-.1 0-4.2-1.4 1.8-3.8 1.1-.7z" fill="#007f36"/><path d="m165.2 110.5s-.1.1 0 0c-.3-.1-.4 0-.6.1-1-.1-4.5.1-5.1-.4-.3-.3-.3-.6-.3-.9.1 0 .4.1.4 0 1.1-.6 4.6.7 5.5-.1.1 0 .3 0 .1.1.2.6.3.9 0 1.2z" fill="#9e3625"/><path d="m165.2 126.6c.1-.3 0-.6.1-.7 0-.1 0-.3-.3-.3 0 .1 0 .1-.1.3-.3 0-.7 0-1 0 0-.1-.1-.1-.1 0-1.3.1-2.5 0-3.7-.3-.1-.1-.3-.1-.6-.1-.1.4-.1.9-.3 1.3 1 0 1 1 2.2.3h.6.1s2.7 0 3-.3c.1.3.1.1.1-.2z" fill="#9e3625"/><path d="m165.1 106.8c-.3 0-.4 0-.7 0 0-.1 0-.1 0-.1-.1 0-.3 0-.4 0-.1 0-.3.1-.4 0-.1 0-.3 0-.4 0-.6.3-2.7.3-3.4.3 0 .1 0 .3-.1.3 0 .3.3.4.6.3h.1c.8-.1 1.7-.1 2.5-.3.4.1.8.3 1.3.3s.8 0 1.1 0c0 0 .1 0 .1-.1-.2-.2 0-.5-.3-.7z" fill="#9e3625"/><path d="m165.7 129.1c0-.3 0-2.3-.4-2.3 0 .1 0 .3-.1.4-.8 0-2.2.1-3 .3h-.2c-.1 0-.4 0-.6 0-.7.1-1.3.1-1.8-.1-.3 0-.1 1.5-.1 1.6-.1.1 0 .3 0 .3.1.1.4.3.6.4h.3v.3h.3s0 0-.1 0c.1.1.3.3.1.4.1 0 1.5.1 1.4.3.1 0 .1-.1.1-.3.8 0 1.8.1 2.5-.1.3 0 .4 0 .7-.1.1 0 0-.1 0-.3h.1c.2-.2.2-.5.2-.8z" fill="#eb8024"/><path d="m165.5 108.9c-.1-1.8-7.2-1.8-6 .4.1 0 .4.1.4 0 .3-.1 2.8.1 2.8-.3.3.3 3 0 2.8-.1z" fill="#eb8024"/><path d="m165.8 104.3c0-.1 0-.1 0 0-.8-2.8-6.3 0-6.3 0v1.9c-.1.3-.1.4-.1.7.1 0 .1 0 .3.1 0-.3 3.7-.3 4.2-.3.3-.1.4-.1.4.1.7 0 1 .1 1.3-.4.3-.4.3-1.2.2-2.1z" fill="#eb8024"/><path d="m161 113.4c0 .1 0 .3-.1.4-.6 3.2 1.3 1.6 3 2.5.1 0 .1-.1.1-.1.8 0 .6-3.1-1.1-3.1-.2-.1-1.7-.4-1.9.3z" fill="#009d4c"/><path d="m165.8 114.6c0-.3-.1-4.1-.7-4.1-1.1 0-5.1.4-5.8-.3-.6.6.4 1.2.6 1.5-.1 0-.1 0-.1-.1-1.1 0-1 13-.3 13.9.8 1 5.1.4 5.8.4.9-1 .5-9.2.5-11.3zm-1.8 7.8c-.1.4-.1 1-.3 1.5-1.5 2-5.2-1.5.3-1.5zm.7-5.7c0 .6-4.1 0-4.4-.4-3-4 3.1-3.2 4.1-3.2.1 1.1.3 2.4.3 3.6z" fill="#eb8024"/><path d="m163.3 122.5c-.4-.1-2.4-.4-1.8.6 0 0 0 .1.1.1 0 .3.1.6.1.9.8.9 1.4-.3 1.8-.7.1-.3.1-.6-.2-.9z" fill="#009d4c"/><path d="m183.2 136.4c0 3.2-4.9 3.2-4.9 0s4.9-3.2 4.9 0zm-4.3 0c0 2.5 3.5 2.6 3.7.1.1-2.5-3.7-2.5-3.7-.1zm1.4 1.4h-.6v-2.5c.6-.1 1.3-.1 1.8 0 .4.4.4.9-.3 1.2.3.3.6.7.6 1.2h-.6c-.4-.4-.1-1-1-1 .1-.1.1 1.1.1 1.1zm.1-1.4c1-.1 1-.4 0-.7z" fill="#e01f26"/></svg>